<svg width="800" height="600" xmlns="http://www.w3.org/2000/svg">

 <g>
  <title>Layer 1</title>
  <path id="svg_5" d="m62.5,300.00001l0,0c0,-156.02043 151.10391,-282.5 337.49999,-282.5l0,0c89.51052,0 175.35501,29.76329 238.64849,82.74232c63.29355,52.97905 98.85151,124.834 98.85151,199.75769l0,0c0,156.02041 -151.10391,282.5 -337.49999,282.5l0,0c-186.39606,0 -337.49999,-126.47959 -337.49999,-282.5zm168.75,0l0,0c0,78.0102 75.552,141.25 168.75,141.25c93.19806,0 168.75,-63.23981 168.75,-141.25c0,-78.0102 -75.55198,-141.25 -168.75,-141.25l0,0c-93.198,0 -168.75,63.23983 -168.75,141.25z" stroke-width="4" stroke="#000" fill="#61adf9"/>
  <path stroke="#000" id="svg_6" d="m329.32748,257.50001l-93.82748,42.50395l93.83619,42.49604l34.13036,-15.45529l-59.72243,-27.04076l59.71002,-27.04079l-34.12666,-15.46317l0,0.00001zm137.32378,0l-34.10564,15.45925l59.71023,27.04075l-59.71023,27.03746l34.10564,15.45521l93.8487,-42.49994l-93.8487,-42.49272z" stroke-width="4" fill="#f760f4"/>
  <path transform="rotate(90 400 300)" stroke="#000" id="svg_7" d="m341.89249,240.50001l-79.39249,59.50553l79.39986,59.49446l28.87954,-21.6374l-50.53437,-37.85707l50.52386,-37.8571l-28.87641,-21.64843l0,0.00001zm116.19705,0l-28.85862,21.64294l50.52405,37.85705l-50.52405,37.85244l28.85862,21.63729l79.41045,-59.49991l-79.41045,-59.48981z" stroke-width="4" fill="#f760f4"/>
  <ellipse transform="rotate(-0.622311 399 298)" stroke="#000000" ry="34.85258" rx="36.55894" id="svg_8" cy="298" cx="399.00001" stroke-width="2" fill="#ff0000"/>
 </g>
</svg>